<svg id="Layer_1" data-name="Layer 1" xmlns="http://www.w3.org/2000/svg" viewBox="0 0 18 18"><defs><style>.cls-1{fill:#fff;}</style></defs><title>icon-zone</title><path class="cls-1" d="M0,5.64V1.24A1.23,1.23,0,0,1,1.24,0h4.4A1.23,1.23,0,0,1,6.87,1.24h0A1.23,1.23,0,0,1,5.64,2.47H2.47V5.64A1.23,1.23,0,0,1,1.24,6.87h0A1.23,1.23,0,0,1,0,5.64Z"/><path class="cls-1" d="M0,16.76v-4.4a1.23,1.23,0,0,1,1.24-1.23h0a1.23,1.23,0,0,1,1.23,1.23v3.17H5.64a1.23,1.23,0,0,1,1.23,1.23h0A1.23,1.23,0,0,1,5.64,18H1.24A1.23,1.23,0,0,1,0,16.76Z"/><path class="cls-1" d="M11.13,16.76h0a1.23,1.23,0,0,1,1.23-1.23h3.17V12.36a1.23,1.23,0,0,1,1.23-1.23h0A1.23,1.23,0,0,1,18,12.36v4.4A1.23,1.23,0,0,1,16.76,18h-4.4A1.23,1.23,0,0,1,11.13,16.76Z"/><path class="cls-1" d="M15.53,5.64V2.47H12.36a1.23,1.23,0,0,1-1.23-1.23h0A1.23,1.23,0,0,1,12.36,0h4.4A1.23,1.23,0,0,1,18,1.24v4.4a1.23,1.23,0,0,1-1.24,1.23h0A1.23,1.23,0,0,1,15.53,5.64Z"/></svg>