<?xml version="1.0" encoding="UTF-8" standalone="no"?>
<!-- Created with Inkscape (http://www.inkscape.org/) -->
<svg
   xmlns:dc="http://purl.org/dc/elements/1.1/"
   xmlns:cc="http://creativecommons.org/ns#"
   xmlns:rdf="http://www.w3.org/1999/02/22-rdf-syntax-ns#"
   xmlns:svg="http://www.w3.org/2000/svg"
   xmlns="http://www.w3.org/2000/svg"
   xmlns:sodipodi="http://sodipodi.sourceforge.net/DTD/sodipodi-0.dtd"
   xmlns:inkscape="http://www.inkscape.org/namespaces/inkscape"
   width="300.03"
   height="222.636"
   id="svg4309"
   sodipodi:version="0.32"
   inkscape:version="0.46"
   version="1.0"
   sodipodi:docname="TPMS_warning_icon.svg"
   inkscape:output_extension="org.inkscape.output.svg.inkscape">
  <defs
     id="defs4311">
    <inkscape:perspective
       sodipodi:type="inkscape:persp3d"
       inkscape:vp_x="0 : 526.18109 : 1"
       inkscape:vp_y="0 : 1000 : 0"
       inkscape:vp_z="744.09448 : 526.18109 : 1"
       inkscape:persp3d-origin="372.04724 : 350.78739 : 1"
       id="perspective4317" />
  </defs>
  <sodipodi:namedview
     id="base"
     pagecolor="#ffffff"
     bordercolor="#666666"
     borderopacity="1.0"
     gridtolerance="10000"
     guidetolerance="10"
     objecttolerance="10"
     inkscape:pageopacity="0.0"
     inkscape:pageshadow="2"
     inkscape:zoom="2.0661528"
     inkscape:cx="150.01639"
     inkscape:cy="111.318"
     inkscape:document-units="px"
     inkscape:current-layer="layer1"
     showgrid="false"
     showborder="false"
     inkscape:showpageshadow="false" />
  <metadata
     id="metadata4314">
    <rdf:RDF>
      <cc:Work
         rdf:about="">
        <dc:format>image/svg+xml</dc:format>
        <dc:type
           rdf:resource="http://purl.org/dc/dcmitype/StillImage" />
      </cc:Work>
    </rdf:RDF>
  </metadata>
  <g
     inkscape:label="Layer 1"
     inkscape:groupmode="layer"
     id="layer1"
     transform="translate(572.87354,-321.04418)">
    <g
       transform="matrix(0.521699,0,0,0.521699,-573.15247,314.03359)"
       id="g3499"
       style="fill-rule:nonzero;stroke:#000000;stroke-width:0.17638899;stroke-linecap:round;stroke-linejoin:round;stroke-miterlimit:4">
      <path
         d="M 314.2583,323.64893 C 314.2583,309.1958 302.5415,297.479 288.08838,297.479 C 273.63525,297.479 261.91846,309.1958 261.91846,323.64893 C 261.91846,338.10205 273.63525,349.81885 288.08838,349.81885 C 302.5415,349.81885 314.2583,338.10205 314.2583,323.64893 z"
         id="path3501" />
      <path
         d="M 261.91846,100.74365 L 261.91846,235.81396 C 261.91846,250.26807 273.63525,261.98389 288.08838,261.98389 C 302.5415,261.98389 314.2583,250.26807 314.2583,235.81396 L 314.2583,100.74365 C 314.2583,86.290527 302.5415,74.57373 288.08838,74.57373 C 273.63525,74.57373 261.91846,86.290527 261.91846,100.74365 z"
         id="path3503" />
      <path
         d="M 406.63623,379.87451 C 464.35596,331.72412 487.21728,253.44385 464.48389,181.79736 C 462.69775,176.16602 459.99756,170.86572 456.49267,166.10889 L 411.48291,105.01904 C 404.65088,95.745605 400.96533,84.529297 400.96533,73.010742 L 400.96533,56.651855 C 400.96533,52.678222 404.18603,49.457031 408.16064,49.457031 L 435.58545,49.457031 C 440.24268,49.457031 444.12939,53.01123 444.54443,57.649414 L 447.68017,92.711426 C 448.57959,102.76123 452.27881,112.35693 458.35596,120.41016 C 481.74756,151.40381 496.23486,188.19336 500.2583,226.81397 C 502.85791,277.16846 487.46338,326.80518 456.82764,366.85205 L 440.02295,420.91455 C 439.46435,422.7124 437.84424,423.97217 435.96435,424.0708 L 396.08642,426.16065 L 396.08642,403.95166 L 365.22998,403.95166 L 365.22998,426.16064 L 334.37354,426.16064 L 334.37354,403.95166 L 303.51709,403.95166 L 303.51709,426.16064 L 272.66016,426.16064 L 272.66016,403.95166 L 241.80371,403.95166 L 241.80371,426.16064 L 210.94727,426.16064 L 210.94727,403.95166 L 180.09082,403.95166 L 180.09082,426.16064 L 140.21289,424.0708 C 138.33252,423.97217 136.7124,422.7124 136.15381,420.91455 L 119.34912,366.85205 C 88.713378,326.80517 73.319335,277.16846 75.918944,226.81396 C 79.941893,188.19336 94.429686,151.40381 117.8208,120.41015 C 123.89844,112.35693 127.59717,102.76123 128.49609,92.711425 L 131.63281,57.649413 C 132.04785,53.011229 135.93457,49.45703 140.59131,49.45703 L 168.0166,49.45703 C 171.99072,49.45703 175.21191,52.678221 175.21191,56.651854 L 175.21191,73.010741 C 175.21191,84.529296 171.52637,95.745604 164.69336,105.01904 L 119.68408,166.10889 C 116.17969,170.86572 113.47949,176.16601 111.69287,181.79736 C 88.959472,253.44385 111.8208,331.72412 169.54053,379.87451 L 406.63623,379.87451 L 406.63623,379.87451 z"
         id="path3505"
         style="stroke-width:1;stroke-linecap:butt;stroke-linejoin:miter" />
    </g>
    <g
       transform="matrix(0.521699,0,0,0.521699,-573.15247,314.03359)"
       id="Layer_x0020_1"
       style="fill-rule:nonzero;stroke:#000000;stroke-miterlimit:4" />
  </g>
</svg>
