<svg id="Layer_1" data-name="Layer 1" xmlns="http://www.w3.org/2000/svg" viewBox="0 0 11 20"><defs><style>.cls-1{fill:#fff;}</style></defs><title>icon-temperature</title><path class="cls-1" d="M8.26,10.49V2.76a2.76,2.76,0,0,0-5.52,0v7.73a5.16,5.16,0,1,0,5.52,0ZM5.5,18.87a4,4,0,0,1-2-7.5h1.8a.56.56,0,0,0,.56-.56h0a.56.56,0,0,0-.56-.56H3.86V9H5.25a.57.57,0,0,0,0-1.13H3.86V6.54H5.25a.56.56,0,0,0,0-1.12H3.86V4.13H5.25a.56.56,0,0,0,.56-.56A.57.57,0,0,0,5.25,3H3.86V2.76a1.64,1.64,0,0,1,3.28,0v8.05a.57.57,0,0,0,.29.5A4,4,0,0,1,5.5,18.87Z"/></svg>