<svg id="Layer_1" data-name="Layer 1" xmlns="http://www.w3.org/2000/svg" viewBox="0 0 32 32"><defs><style>.cls-1{fill:#fff;}.cls-2{fill:#2f3c43;}.cls-3{fill:#979da1;}</style></defs><title>spartanlync-tools-menu-icon</title><path class="cls-1" d="M28.25,4a12.57,12.57,0,0,0-18.45,17,2,2,0,0,0-.68-.12,2.19,2.19,0,0,0-1.57.65,2.21,2.21,0,0,0-.46,2.47,2.14,2.14,0,0,0-.9-.19,2.22,2.22,0,0,0-1.57,3.78,12.56,12.56,0,0,0,18.44-17,2.1,2.1,0,0,0,.7.12,2.21,2.21,0,0,0,1.57-.65A2.23,2.23,0,0,0,26,8.5a2.26,2.26,0,0,0-.19-.89,2.26,2.26,0,0,0,.9.18,2.17,2.17,0,0,0,1.56-.65A2.2,2.2,0,0,0,28.25,4Z"/><path class="cls-2" d="M21.56,10.7a3.1,3.1,0,0,0-4.39,4.39,5.18,5.18,0,1,1-7.32,7.32,1,1,0,0,0-1.47,1.47A7.25,7.25,0,0,0,18.63,13.63a1,1,0,0,1,1.47-1.47A9.32,9.32,0,0,1,6.92,25.34a1,1,0,1,0-1.46,1.47A11.39,11.39,0,0,0,21.56,10.7Z"/><path class="cls-3" d="M15.7,16.56A5.18,5.18,0,0,1,23,9.24a1,1,0,0,0,1.47-1.47A7.25,7.25,0,0,0,14.24,18a1.05,1.05,0,0,1,0,1.47,1,1,0,0,1-1.46,0A9.32,9.32,0,0,1,26,6.31a1,1,0,1,0,1.47-1.47A11.39,11.39,0,0,0,11.31,21a3.1,3.1,0,0,0,4.39-4.39Z"/></svg>