<svg id="Layer_1" data-name="Layer 1" xmlns="http://www.w3.org/2000/svg" viewBox="0 0 18 18"><defs><style>.cls-1{fill:#fff;}</style></defs><title>icon-tpms</title><path class="cls-1" d="M15.68,3A2.63,2.63,0,0,1,15,1.18v0A1.15,1.15,0,0,0,13.89,0a1.13,1.13,0,0,0-1.18,1.13v.05A4.88,4.88,0,0,0,14,4.48a6.74,6.74,0,0,1,0,9,4.89,4.89,0,0,0-.83,1.24.8.8,0,0,1-.73.45H5.56a.8.8,0,0,1-.73-.45A4.89,4.89,0,0,0,4,13.52a6.74,6.74,0,0,1,0-9,4.93,4.93,0,0,0,1.29-3.3v0A1.15,1.15,0,0,0,4.22,0,1.14,1.14,0,0,0,3,1.13v.05A2.63,2.63,0,0,1,2.32,3,9,9,0,0,0,2.32,15,2.63,2.63,0,0,1,3,16.82v.05A1.14,1.14,0,0,0,4.16,18h.59A.27.27,0,0,0,5,17.73v-.86a.25.25,0,0,1,.26-.26h0a.26.26,0,0,1,.27.26v.86a.27.27,0,0,0,.26.27H7.23a.26.26,0,0,0,.26-.27v-.86a.26.26,0,0,1,.27-.26h0a.26.26,0,0,1,.27.26v.86a.27.27,0,0,0,.26.27H9.71a.27.27,0,0,0,.26-.27v-.86a.26.26,0,0,1,.27-.26h0a.26.26,0,0,1,.27.26v.86a.26.26,0,0,0,.26.27h1.42a.27.27,0,0,0,.26-.27v-.86a.26.26,0,0,1,.27-.26h0a.25.25,0,0,1,.26.26v.86a.27.27,0,0,0,.27.27h.59A1.14,1.14,0,0,0,15,16.87v-.05A2.63,2.63,0,0,1,15.68,15,9,9,0,0,0,15.68,3Z"/><circle class="cls-1" cx="9" cy="12.54" r="0.85"/><path class="cls-1" d="M9,2.92A1.51,1.51,0,0,0,7.52,4.44c0,1.32.67,6.44,1.48,6.44s1.48-5.12,1.48-6.44A1.51,1.51,0,0,0,9,2.92Z"/></svg>