<?xml version="1.0" encoding="utf-8"?>
<!-- Generator: Adobe Illustrator 24.2.1, SVG Export Plug-In . SVG Version: 6.00 Build 0)  -->
<svg version="1.1" id="spartanlync-icon" xmlns="http://www.w3.org/2000/svg" xmlns:xlink="http://www.w3.org/1999/xlink" x="0px"
	 y="0px" viewBox="0 0 128 128" style="enable-background:new 0 0 128 128;" xml:space="preserve">
<style type="text/css">
	.st0{fill:#2F3C43;}
	.st1{fill:#979DA1;}
</style>
<path id="dark-gray" class="st0" d="M108.3,49.7c0,26.3-47.7,76.3-47.7,76.3S13,76,13,49.7C13,23.3,34.3,2,60.7,2
	S108.3,23.3,108.3,49.7L108.3,49.7z M94.2,49.7c0-18.6-15-33.6-33.6-33.6c-18.6,0-33.6,15-33.6,33.6c0,18.6,15,33.6,33.6,33.6
	C79.2,83.2,94.2,68.2,94.2,49.7L94.2,49.7z M63,41.1c-1.7,1.7-1.7,4.4,0,6.2c0,0,0,0,0,0c4,4.7,3.5,11.7-1.2,15.7
	c-4.2,3.6-10.4,3.6-14.6,0c-1.8-1.6-4.5-1.5-6.2,0.3c-1.5,1.7-1.5,4.2,0,5.9c8,7.5,20.6,7.1,28.1-0.9c7.1-7.6,7.1-19.5,0-27.1
	C67.5,39.4,64.7,39.4,63,41.1C63,41.1,63,41.1,63,41.1z"/>
<path id="light-gray" class="st1" d="M52,30.1c-7.7,7.8-7.7,20.3,0,28.1c1.7,1.7,4.5,1.7,6.2,0s1.7-4.5,0-6.2l0,0
	c-4.4-4.4-4.3-11.4,0-15.8s11.4-4.3,15.8,0l0,0c1.7,1.7,4.5,1.7,6.2,0c1.7-1.7,1.7-4.5,0-6.2l0,0C72.4,22.4,59.8,22.4,52,30.1
	L52,30.1z"/>
</svg>
