<svg id="Layer_1" data-name="Layer 1" xmlns="http://www.w3.org/2000/svg" viewBox="0 0 254 48"><defs><style>.cls-1{fill:#2f3c43;}.cls-2{fill:#979da1;}</style></defs><title>spartanlync-tools-logo</title><path class="cls-1" d="M44.1,29.21a3.74,3.74,0,0,0,.69,1.86A4,4,0,0,0,48,32.19a6.84,6.84,0,0,0,2.22-.3,2.11,2.11,0,0,0,1.62-2.1,1.55,1.55,0,0,0-.79-1.39,8.77,8.77,0,0,0-2.51-.85l-2-.43a12.15,12.15,0,0,1-4-1.38,4.43,4.43,0,0,1-1.83-3.92,5.23,5.23,0,0,1,1.79-4.05,7.66,7.66,0,0,1,5.26-1.6,8.09,8.09,0,0,1,5,1.51,5.38,5.38,0,0,1,2.14,4.41H51.29a2.62,2.62,0,0,0-1.46-2.33,5.08,5.08,0,0,0-2.26-.45,4.29,4.29,0,0,0-2.39.59,1.86,1.86,0,0,0-.9,1.65A1.56,1.56,0,0,0,45.17,23a11,11,0,0,0,2.4.75l3.18.74a8.07,8.07,0,0,1,3.13,1.32,4.42,4.42,0,0,1,1.62,3.7,5.19,5.19,0,0,1-1.92,4.12,8.11,8.11,0,0,1-5.42,1.64,8.82,8.82,0,0,1-5.62-1.62,5.32,5.32,0,0,1-2-4.44Z"/><path class="cls-1" d="M65.94,25.37a2.47,2.47,0,0,0-2.31-1.19A2.64,2.64,0,0,0,61,26a7,7,0,0,0-.37,2.43,3.87,3.87,0,0,0,1.25,3.28,2.9,2.9,0,0,0,1.77.56,2.57,2.57,0,0,0,2.25-1.13,5.23,5.23,0,0,0,.78-3,5.16,5.16,0,0,0-.72-2.74m2.69-2.52a7.14,7.14,0,0,1,1.64,5.09,8.08,8.08,0,0,1-1.6,5.39,5.23,5.23,0,0,1-4.13,1.85,4.28,4.28,0,0,1-2.67-.8,4.93,4.93,0,0,1-1.14-1.29v7H57.27V21.41h3.35v2A5.77,5.77,0,0,1,61.84,22a4.5,4.5,0,0,1,2.79-.89,5.28,5.28,0,0,1,4,1.73"/><path class="cls-1" d="M80.18,28.29a3.93,3.93,0,0,1-.68.34,7.35,7.35,0,0,1-.94.24l-.79.15a5.42,5.42,0,0,0-1.61.47,1.83,1.83,0,0,0-.33,2.79,2,2,0,0,0,1.23.4A3.63,3.63,0,0,0,79.18,32a2.81,2.81,0,0,0,1-2.42ZM78,26.66a5.59,5.59,0,0,0,1.4-.31,1,1,0,0,0,.75-1,1.17,1.17,0,0,0-.58-1.13,3.61,3.61,0,0,0-1.69-.31,2.25,2.25,0,0,0-1.79.61,2.57,2.57,0,0,0-.49,1.23H72.26a5.12,5.12,0,0,1,1-2.89q1.4-1.77,4.79-1.77A8.61,8.61,0,0,1,82,22a3.36,3.36,0,0,1,1.71,3.3V31.4c0,.42,0,.94,0,1.55a1.93,1.93,0,0,0,.2.93,1.38,1.38,0,0,0,.52.41v.51H80.61a4.23,4.23,0,0,1-.22-.76c0-.24-.07-.51-.1-.81a7.13,7.13,0,0,1-1.68,1.34,5.11,5.11,0,0,1-2.57.65,4.45,4.45,0,0,1-3-1,3.67,3.67,0,0,1-1.19-2.94,3.82,3.82,0,0,1,1.92-3.58,8.73,8.73,0,0,1,3.09-.86Z"/><path class="cls-1" d="M94.17,21.1l.3,0V24.7l-.59-.05h-.42A2.91,2.91,0,0,0,90.62,26a5.34,5.34,0,0,0-.4,2.38v6.4H86.69V21.41H90v2.34a7.42,7.42,0,0,1,1.41-1.84A3.86,3.86,0,0,1,94,21.09h.17"/><path class="cls-1" d="M96.66,24v-2.5h1.86V17.8H102v3.73h2.17V24H102V31.1a1.61,1.61,0,0,0,.21,1,2.31,2.31,0,0,0,1.27.2h.34l.35,0v2.61L102.5,35c-1.65,0-2.78-.23-3.39-.86a2.58,2.58,0,0,1-.59-1.86V24Z"/><path class="cls-1" d="M114.86,28.29a3.93,3.93,0,0,1-.68.34,7.35,7.35,0,0,1-.94.24l-.79.15a5.42,5.42,0,0,0-1.61.47,1.83,1.83,0,0,0-.33,2.79,2,2,0,0,0,1.23.4,3.63,3.63,0,0,0,2.12-.67,2.81,2.81,0,0,0,1-2.42Zm-2.14-1.63a5.59,5.59,0,0,0,1.4-.31,1,1,0,0,0,.75-1,1.17,1.17,0,0,0-.58-1.13,3.63,3.63,0,0,0-1.7-.31,2.24,2.24,0,0,0-1.78.61,2.47,2.47,0,0,0-.49,1.23h-3.38a5.12,5.12,0,0,1,1-2.89q1.39-1.77,4.79-1.77a8.61,8.61,0,0,1,3.93.87,3.36,3.36,0,0,1,1.71,3.3V31.4c0,.42,0,.94,0,1.55a2,2,0,0,0,.21.93,1.38,1.38,0,0,0,.52.41v.51h-3.81a3.55,3.55,0,0,1-.22-.76c0-.24-.07-.51-.1-.81a7.13,7.13,0,0,1-1.68,1.34,5.11,5.11,0,0,1-2.57.65,4.43,4.43,0,0,1-3-1,3.67,3.67,0,0,1-1.19-2.94,3.82,3.82,0,0,1,1.92-3.58,8.73,8.73,0,0,1,3.09-.86Z"/><path class="cls-1" d="M132.21,22.18a4.44,4.44,0,0,1,1.31,3.6v9h-3.58V26.66a3.64,3.64,0,0,0-.29-1.62,2,2,0,0,0-2-1,2.42,2.42,0,0,0-2.42,1.51,5.22,5.22,0,0,0-.35,2V34.8h-3.5V21.44h3.39v1.95a6.08,6.08,0,0,1,1.28-1.49,4.37,4.37,0,0,1,2.72-.81,5.13,5.13,0,0,1,3.39,1.09"/><polygon class="cls-1" points="137.06 16.69 140.84 16.69 140.84 31.55 149.89 31.55 149.89 34.8 137.06 34.8 137.06 16.69"/><path class="cls-1" d="M151.24,37.37l.44,0a5.38,5.38,0,0,0,1,0,1.7,1.7,0,0,0,.78-.29,1.71,1.71,0,0,0,.57-.87,1.94,1.94,0,0,0,.23-.81l-4.92-14h3.9l2.92,9.88,2.76-9.88h3.73L158,34.58a18.12,18.12,0,0,1-2.1,4.72c-.52.62-1.55.92-3.1.92h-.75c-.19,0-.47,0-.85,0Z"/><path class="cls-1" d="M175.5,22.18a4.41,4.41,0,0,1,1.32,3.6v9h-3.59V26.66A3.65,3.65,0,0,0,173,25,2,2,0,0,0,171,24a2.43,2.43,0,0,0-2.43,1.51,5.24,5.24,0,0,0-.34,2V34.8h-3.5V21.44h3.39v1.95a6.08,6.08,0,0,1,1.27-1.49,4.42,4.42,0,0,1,2.73-.81,5.08,5.08,0,0,1,3.38,1.09"/><path class="cls-1" d="M187.58,26.21a3.07,3.07,0,0,0-.5-1.35,2.14,2.14,0,0,0-1.84-.81,2.41,2.41,0,0,0-2.42,1.76,7.28,7.28,0,0,0-.35,2.47,6.7,6.7,0,0,0,.35,2.37,2.33,2.33,0,0,0,2.36,1.67,2.1,2.1,0,0,0,1.75-.66,3.4,3.4,0,0,0,.63-1.72h3.57A5.91,5.91,0,0,1,190,33a5.64,5.64,0,0,1-4.89,2.3,5.72,5.72,0,0,1-4.76-1.92,7.77,7.77,0,0,1-1.52-5A7.86,7.86,0,0,1,180.49,23a5.88,5.88,0,0,1,4.65-1.92,7,7,0,0,1,4.13,1.13,5.29,5.29,0,0,1,1.9,4Z"/><path class="cls-2" d="M212.28,16.68v2.16h-6.11v16h-2.48v-16h-6.11V16.68Z"/><path class="cls-2" d="M220,22.91a6.68,6.68,0,0,1,1.75,5,8.63,8.63,0,0,1-1.55,5.28,5.58,5.58,0,0,1-4.79,2.08,5.4,5.4,0,0,1-4.3-1.84,7.32,7.32,0,0,1-1.59-4.95,7.89,7.89,0,0,1,1.68-5.3,5.61,5.61,0,0,1,4.51-2A5.91,5.91,0,0,1,220,22.91Zm-1.38,8.78a8.42,8.42,0,0,0,.81-3.72,6.64,6.64,0,0,0-.59-3,3.28,3.28,0,0,0-3.19-1.83,3.15,3.15,0,0,0-2.93,1.55,7.29,7.29,0,0,0-.92,3.75,6.28,6.28,0,0,0,.92,3.51,3.21,3.21,0,0,0,2.9,1.41A3,3,0,0,0,218.62,31.69Z"/><path class="cls-2" d="M234.05,22.91a6.64,6.64,0,0,1,1.75,5,8.69,8.69,0,0,1-1.54,5.28,5.6,5.6,0,0,1-4.79,2.08,5.38,5.38,0,0,1-4.3-1.84,7.28,7.28,0,0,1-1.6-4.95,7.89,7.89,0,0,1,1.68-5.3,5.61,5.61,0,0,1,4.51-2A5.91,5.91,0,0,1,234.05,22.91Zm-1.38,8.78a8.42,8.42,0,0,0,.81-3.72,6.64,6.64,0,0,0-.59-3,3.27,3.27,0,0,0-3.19-1.83,3.16,3.16,0,0,0-2.93,1.55,7.29,7.29,0,0,0-.92,3.75,6.28,6.28,0,0,0,.92,3.51,3.21,3.21,0,0,0,2.9,1.41A3,3,0,0,0,232.67,31.69Z"/><path class="cls-2" d="M238.08,16.68h2.22V34.8h-2.22Z"/><path class="cls-2" d="M244.45,30.66a3.22,3.22,0,0,0,.57,1.7,3.61,3.61,0,0,0,3,1.07,4.39,4.39,0,0,0,2.21-.54,1.77,1.77,0,0,0,1-1.66,1.41,1.41,0,0,0-.76-1.29,9.44,9.44,0,0,0-1.93-.63l-1.8-.44a9,9,0,0,1-2.53-.94,2.8,2.8,0,0,1-1.46-2.49,3.8,3.8,0,0,1,1.37-3,5.55,5.55,0,0,1,3.69-1.16A5.16,5.16,0,0,1,252.1,23a3.75,3.75,0,0,1,.81,2.4h-2.09a2.61,2.61,0,0,0-.55-1.37,3.51,3.51,0,0,0-2.71-.87,3.3,3.3,0,0,0-1.95.48,1.49,1.49,0,0,0-.67,1.27,1.57,1.57,0,0,0,.87,1.38,5.63,5.63,0,0,0,1.49.54l1.49.36a11.5,11.5,0,0,1,3.27,1.12,3,3,0,0,1,1.3,2.68A4,4,0,0,1,252,34a5.79,5.79,0,0,1-4.13,1.29c-2,0-3.4-.45-4.22-1.34a5,5,0,0,1-1.33-3.31Z"/><path class="cls-1" d="M26.49,15.93a4.89,4.89,0,0,0-6.92,6.92A8.15,8.15,0,0,1,8,34.38a1.63,1.63,0,0,0-2.31,2.3A11.42,11.42,0,0,0,21.88,20.54a1.63,1.63,0,0,1,2.3-2.31A14.68,14.68,0,0,1,3.43,39,1.63,1.63,0,1,0,1.12,41.3,17.94,17.94,0,0,0,26.49,15.93"/><path class="cls-2" d="M17.26,25.15A8.15,8.15,0,0,1,28.79,13.62a1.63,1.63,0,0,0,2.31-2.3A11.41,11.41,0,0,0,15,27.46a1.63,1.63,0,1,1-2.31,2.31A14.68,14.68,0,0,1,33.41,9a1.63,1.63,0,1,0,2.3-2.31A17.94,17.94,0,0,0,10.35,32.07a4.89,4.89,0,0,0,6.91-6.92"/></svg>