<svg id="spartanlync-icon" xmlns="http://www.w3.org/2000/svg" viewBox="0 0 32 32">
  <path id="spartanlync-tools-menu" d="M6.3073,18.26A10.1131,10.1131,0,0,1,20.6091,3.9575,1,1,0,1,1,19.195,5.3716,8.1132,8.1132,0,0,0,7.7214,16.8457a.8636.8636,0,0,0,1.1884,0,.8414.8414,0,0,0-.0009-1.1885A6.4332,6.4332,0,0,1,18.0075,6.56a1,1,0,0,1-1.4141,1.414,4.4332,4.4332,0,0,0-6.2695,6.27A2.84,2.84,0,1,1,6.3073,18.26ZM31,20.9546V21.61a3.1633,3.1633,0,0,1-1.8967,2.8822,3.1229,3.1229,0,0,1-.7164,3.4716l-.4482.4482a3.116,3.116,0,0,1-2.2164.9225,3.2157,3.2157,0,0,1-1.2553-.2571A3.1636,3.1636,0,0,1,21.5735,31h-.6553a3.1637,3.1637,0,0,1-2.8828-1.8977,3.119,3.119,0,0,1-3.4709-.7152l-.4484-.4484a3.1362,3.1362,0,0,1-.8575-2.801,10.1182,10.1182,0,0,1-11.966-1.7363,1,1,0,0,1,1.4141-1.4141,8.11,8.11,0,0,0,9.4338,1.4649,3.1173,3.1173,0,0,1-.5921-1.573,6.4415,6.4415,0,0,1-7.6532-1.08,1,1,0,0,1,1.414-1.414,4.4333,4.4333,0,0,0,6.27-6.27,2.84,2.84,0,0,1,4.0166-4.0171,9.9919,9.9919,0,0,1,2.526,4.2724,3.1569,3.1569,0,0,1,2.8332-1.806H21.61a3.1633,3.1633,0,0,1,2.8828,1.8977,3.1187,3.1187,0,0,1,3.4709.7151l.4485.4484a3.157,3.157,0,0,1,.6778,3.4407A3.1637,3.1637,0,0,1,31,20.9546ZM12.9928,11.7012a6.3823,6.3823,0,0,1,1.5431,2.5047l.0534-.0534a3.12,3.12,0,0,1,1.3988-.8,7.9846,7.9846,0,0,0-1.8068-2.84.84.84,0,0,0-1.1885,1.1885ZM29,20.9546a1.1655,1.1655,0,0,0-.9465-1.1286l-.4733-.1092a1.1492,1.1492,0,0,1-.8373-.6917v-.0364a1.166,1.166,0,0,1,.1093-1.0921l.2912-.4a1.157,1.157,0,0,0-.1457-1.4563l-.4732-.4732a1.11,1.11,0,0,0-.8191-.352,1.0584,1.0584,0,0,0-.6371.2064l-.4005.2912a1.1567,1.1567,0,0,1-.6447.1966,1.2026,1.2026,0,0,1-.4474-.0874h-.0364a1.0892,1.0892,0,0,1-.6917-.8373l-.1092-.4733a1.1653,1.1653,0,0,0-1.1286-.9464h-.6552a1.1653,1.1653,0,0,0-1.1286.9464l-.1092.4733a1.149,1.149,0,0,1-.6917.8373h-.0363a1.203,1.203,0,0,1-.4474.0874,1.157,1.157,0,0,1-.6448-.1966l-.0662-.0491-.0155-.0113c-.0368-.027-.0812-.0592-.1275-.0921l-.0448-.0309c-.036-.0251-.0716-.05-.1006-.0681-.0163-.01-.0218-.0116-.0338-.0183-.0226-.0126-.0484-.0279-.0484-.0214a1.31,1.31,0,0,0-.2716-.1211,1.1628,1.1628,0,0,0-.1612-.038c-.0271-.0053-.0542-.0085-.0815-.0118a1.1964,1.1964,0,0,0-.4548.0416v0a1.1122,1.1122,0,0,0-.4872.275L15.53,16.04a1.1131,1.1131,0,0,0-.1456,1.4563l.2912.4a1.166,1.166,0,0,1,.1092,1.0921v.0364a1.0888,1.0888,0,0,1-.8373.6917l-.4733.1092a1.1654,1.1654,0,0,0-.9464,1.1286V21.61a1.13,1.13,0,0,0,.267.7255,1.1873,1.1873,0,0,0,.2958.2528l.0044.0037a1.19,1.19,0,0,0,.3792.1465l.4733.1092a1.1434,1.1434,0,0,1,.3683.1533c.0184.0114.0359.0214.0536.0338a1.1349,1.1349,0,0,1,.2947.2893h0a1.0965,1.0965,0,0,1,.1207.2153v.0364a1.1659,1.1659,0,0,1-.1092,1.0921l-.2912.4005a1.1569,1.1569,0,0,0,.1456,1.4562l.4732.4732a1.11,1.11,0,0,0,.8191.352,1.0592,1.0592,0,0,0,.6372-.2063l.4-.2913a1.1576,1.1576,0,0,1,.6448-.1966,1.2041,1.2041,0,0,1,.4473.0874h.0365a1.0887,1.0887,0,0,1,.6916.8373l.1093.4733A1.1653,1.1653,0,0,0,20.9182,29h.6553a1.1654,1.1654,0,0,0,1.1285-.9465l.1456-.4733a1.15,1.15,0,0,1,.6917-.8373h.0364a1.203,1.203,0,0,1,.4474-.0874,1.1573,1.1573,0,0,1,.6447.1966l.4005.2913a1.2494,1.2494,0,0,0,.654.191,1.1227,1.1227,0,0,0,.8022-.3367l.4732-.4732a1.1129,1.1129,0,0,0,.1457-1.4562l-.2912-.4005a1.1659,1.1659,0,0,1-.1093-1.0921v-.0364a1.0888,1.0888,0,0,1,.8373-.6917l.4733-.1092A1.1655,1.1655,0,0,0,29,21.61Zm-3.396.3276a4.34,4.34,0,1,1-4.34-4.34A4.3449,4.3449,0,0,1,25.604,21.2822Zm-2,0a2.34,2.34,0,1,0-2.34,2.34A2.34,2.34,0,0,0,23.604,21.2822Z" fill="#66788c"/>
</svg>
