<?xml version="1.0" encoding="utf-8"?>
<!-- Generator: Adobe Illustrator 24.2.1, SVG Export Plug-In . SVG Version: 6.00 Build 0)  -->
<svg version="1.1" id="spartanlync-icon" xmlns="http://www.w3.org/2000/svg" xmlns:xlink="http://www.w3.org/1999/xlink" x="0px"
	 y="0px" viewBox="0 0 128 128" style="enable-background:new 0 0 128 128;" xml:space="preserve">
<style type="text/css">
	.st0{fill:#2F3C43;}
	.st1{fill:#979DA1;}
</style>
<path id="dark-gray" class="st0" d="M75.5,44.2c11.3,11.6,11,30.2-0.6,41.5c-11.4,11-29.5,11-40.8,0c-1.3-1.3-3.3-1.3-4.6-0.1
	c-1.3,1.3-1.3,3.3-0.1,4.6c0,0,0,0,0.1,0.1c14.1,13.9,36.8,13.7,50.7-0.4c13.8-14,13.8-36.4,0-50.3c-3.8-3.8-10-3.8-13.8,0
	s-3.8,10,0,13.8c6.1,6.6,5.6,16.9-1,23c-6.2,5.7-15.7,5.7-22,0c-1.3-1.3-3.3-1.3-4.6,0s-1.3,3.3,0,4.6l0,0
	c9.3,8.5,23.7,7.8,32.2-1.5c7.9-8.7,7.9-22,0-30.7c-1.3-1.3-1.2-3.4,0.1-4.6C72.2,43,74.3,43,75.5,44.2z M115.4,72.7
	c-1.4-4.4-5.5-7.4-10.1-7.4h-5.8c-1.9,0-3.5,1.6-3.5,3.5s1.6,3.5,3.5,3.5h5.8c1.6,0,2.9,1,3.4,2.5l9.8,31.5c0.5,1.6-0.3,3.3-1.9,3.8
	c-0.3,0.1-0.6,0.2-1,0.2H12.4c-1.7,0-3.1-1.4-3.1-3c0-0.3,0-0.7,0.2-1l9.8-31.5c0.5-1.5,1.8-2.5,3.4-2.5h5.8c1.9,0,3.5-1.6,3.5-3.5
	s-1.6-3.5-3.5-3.5h-5.8c-4.6,0-8.7,3-10.1,7.4l-9.8,31.5c-1.7,5.3,1.3,10.9,6.5,12.5c1,0.3,2,0.5,3.1,0.5h103.2
	c5.5,0,10-4.4,10.1-9.9c0-1-0.2-2.1-0.5-3.1L115.4,72.7z"/>
<path id="light-gray" class="st1" d="M52.5,67.3c-11.3-11.6-11-30.2,0.6-41.5c11.4-11,29.5-11,40.8,0c1.3,1.3,3.3,1.3,4.6,0.1
	s1.3-3.3,0.1-4.6c0,0,0,0-0.1-0.1C84.5,7.3,61.8,7.5,47.9,21.6c-13.8,14-13.8,36.4,0,50.3c3.8,3.8,10,3.8,13.8,0s3.8-10,0-13.8
	c-6.1-6.6-5.6-16.9,1-23c6.2-5.7,15.7-5.7,22,0c1.3,1.3,3.3,1.3,4.6,0c1.3-1.3,1.3-3.3,0-4.6l0,0C80,22,65.6,22.6,57.1,32
	c-7.9,8.7-7.9,22,0,30.7c1.3,1.3,1.2,3.4-0.1,4.6C55.8,68.5,53.7,68.5,52.5,67.3z"/>
</svg>
