<?xml version="1.0" encoding="utf-8"?>
<!-- Generator: Adobe Illustrator 24.2.1, SVG Export Plug-In . SVG Version: 6.00 Build 0)  -->
<svg version="1.1" id="spartanlync-icon" xmlns="http://www.w3.org/2000/svg" xmlns:xlink="http://www.w3.org/1999/xlink" x="0px"
	 y="0px" viewBox="0 0 128 128" style="enable-background:new 0 0 128 128;" xml:space="preserve">
<style type="text/css">
	.st0{fill:#2F3C43;}
	.st1{fill:#979DA1;}
</style>
<path id="dark-gray" class="st0" d="M43.7,72.1c9-9,9-23.6,0-32.7c0,0,0,0,0,0c-1.3-1.3-1.4-3.3-0.1-4.7c1.3-1.3,3.3-1.4,4.7-0.1
	c0,0,0.1,0.1,0.1,0.1c5.1,5.1,8.2,12,8.6,19.2c1.8-1.6,4-2.6,6.4-2.8c-1-8-4.6-15.4-10.3-21.1c-3.9-3.8-10.2-3.8-14,0.1
	c-3.8,3.8-3.8,10,0,13.9c6.4,6.4,6.4,16.9,0,23.3c-6.4,6.4-16.9,6.4-23.3,0c-1.3-1.3-3.4-1.2-4.7,0.1c-1.2,1.3-1.2,3.3,0,4.5
	C20.1,81.1,34.7,81.1,43.7,72.1C43.7,72.1,43.7,72.1,43.7,72.1z M42.5,88.7c0-0.1,0-0.2,0-0.3v-3.3c0-1.5,0.3-3,0.9-4.3
	c-11.7,7.5-27.1,5.8-37-4c-1.3-1.2-3.4-1.2-4.7,0.1c-1.2,1.3-1.2,3.3,0,4.5C12.5,92.1,28.7,95,42.5,88.7z"/>
<path id="light-gray" class="st1" d="M34.4,62.7c3.9-3.9,3.9-10.1,0-14c-6.4-6.4-6.4-16.9,0-23.3s16.9-6.4,23.3,0
	c1.3,1.3,3.4,1.2,4.7-0.1c1.2-1.3,1.2-3.3,0-4.5c-9-9-23.6-9-32.7,0s-9,23.6,0,32.7c0,0,0,0,0,0c1.2,1.3,1.2,3.4-0.1,4.7
	c-1.3,1.2-3.3,1.2-4.5,0c-11.5-11.7-11.3-30.5,0.4-42C37,4.7,55.5,4.7,67.1,16c1.3,1.3,3.4,1.3,4.7,0c1.3-1.3,1.3-3.4,0-4.7
	c-14.2-14.2-37.2-14.2-51.3,0s-14.2,37.2,0,51.3C24.2,66.6,30.5,66.6,34.4,62.7C34.4,62.7,34.4,62.7,34.4,62.7z M69.7,58.6
	c1.6,1.1,3.7,1.3,5.5,0.6h0.1c1.8-0.8,3.2-2.4,3.5-4.3l0.5-2.5c0.5-2.8,2.9-4.8,5.8-4.8h3.3c2.8,0,5.2,2,5.8,4.8l0.5,2.5
	c0.4,2,1.7,3.6,3.5,4.3h0.1c1.8,0.8,3.9,0.5,5.5-0.6l2.1-1.4c2.3-1.6,5.5-1.3,7.4,0.7l2.4,2.4c2,2,2.3,5.1,0.7,7.5l-1.4,2.1
	c-1.1,1.6-1.3,3.7-0.6,5.5v0.1c0.8,1.8,2.4,3.2,4.3,3.5l2.5,0.5c2.8,0.5,4.8,2.9,4.8,5.8v3.3c0,2.8-2,5.2-4.8,5.8l-2.5,0.5
	c-2,0.4-3.6,1.7-4.3,3.5v0.1c-0.8,1.8-0.5,3.9,0.6,5.5l1.4,2.1c1.6,2.3,1.3,5.5-0.7,7.5l-2.4,2.4c-2,2-5.1,2.3-7.4,0.7l-2.1-1.4
	c-1.6-1.1-3.7-1.3-5.5-0.6h-0.1c-1.8,0.8-3.2,2.4-3.5,4.3l-0.5,2.5c-0.5,2.8-2.9,4.8-5.8,4.8h-3.3c-2.8,0-5.2-2-5.8-4.8l-0.5-2.5
	c-0.4-2-1.7-3.6-3.5-4.3h-0.1c-1.8-0.8-3.9-0.5-5.5,0.6l-2.1,1.4c-2.3,1.6-5.5,1.3-7.5-0.7l-2.4-2.4c-2-2-2.3-5.1-0.7-7.5l1.4-2.1
	c1.1-1.6,1.3-3.7,0.6-5.6v-0.1c-0.8-1.8-2.4-3.2-4.3-3.5l-2.5-0.5c-2.8-0.5-4.8-2.9-4.8-5.8v-3.4c0-2.8,2-5.2,4.8-5.8l2.5-0.5
	c2-0.4,3.6-1.7,4.3-3.5v-0.1c0.8-1.8,0.5-3.9-0.6-5.6l-1.4-2.1c-1.6-2.3-1.3-5.5,0.7-7.5l2.4-2.4c2-2,5.1-2.3,7.5-0.7L69.7,58.6z
	 M70.9,86.7c0,8.8,7.1,15.9,15.9,15.9c8.8,0,15.9-7.1,15.9-15.9c0-8.8-7.1-15.9-15.9-15.9S70.9,78,70.9,86.7z"/>
</svg>
