<svg id="spartanlync-icon" xmlns="http://www.w3.org/2000/svg" viewBox="0 0 32 32">
  <path id="spartanlync-map-menu" d="M11.77,18.2744A9.1551,9.1551,0,0,1,24.7169,5.3271a1,1,0,1,1-1.4141,1.4141A7.155,7.155,0,0,0,13.1836,16.8594a.6469.6469,0,0,0,.9151-.9146,5.8614,5.8614,0,0,1,8.2891-8.2895,1,1,0,1,1-1.4141,1.414,3.9605,3.9605,0,0,0-5.4609.0005,3.8664,3.8664,0,0,0,0,5.461A2.647,2.647,0,0,1,11.77,18.2744Zm7.0459-6.9331A7.1548,7.1548,0,0,1,8.6973,21.46a1,1,0,0,0-1.414,1.414A9.1546,9.1546,0,0,0,20.23,9.9272a2.7089,2.7089,0,0,0-3.7421,0,2.6505,2.6505,0,0,0,0,3.7427,3.8666,3.8666,0,0,1,0,5.461,3.9616,3.9616,0,0,1-5.461,0,1,1,0,1,0-1.414,1.414,5.8612,5.8612,0,0,0,8.289-8.289.6479.6479,0,0,1,0-.9146A.6621.6621,0,0,1,18.8155,11.3413ZM30.462,26.2051l-2.1-7.8594A3.0052,3.0052,0,0,0,25.4639,16.12h-.5224a1,1,0,1,0,0,2h.5224a1.0031,1.0031,0,0,1,.9668.7422l2.1,7.8584a.5006.5006,0,0,1-.4834.63H3.9532a.5006.5006,0,0,1-.4834-.63l2.1-7.8584a1.002,1.002,0,0,1,.9668-.7422H8.3057a1,1,0,1,0,0-2H6.5362a3.0033,3.0033,0,0,0-2.8984,2.2266l-2.1,7.8584a2.5007,2.5007,0,0,0,2.4151,3.1455H28.0469a2.5007,2.5007,0,0,0,2.4151-3.1455Z" fill="#66788c"/>
</svg>
